HIERARCHY
ROOT Hips
{
	OFFSET	0.00	0.00	0.00
	CHANNELS 6 Xposition Yposition Zposition Zrotation Xrotation Yrotation
	JOINT LeftUpLeg
	{
		OFFSET	 0.126116	-0.014019	-0.065224
		CHANNELS 3 Zrotation Xrotation Yrotation
		JOINT LeftLeg
		{
			OFFSET	 0.000000	 0.000000	 0.569914
			CHANNELS 3 Zrotation Xrotation Yrotation
			JOINT LeftFoot
			{
				OFFSET	 0.000000	 0.000000	 0.544423
				CHANNELS 3 Zrotation Xrotation Yrotation
				JOINT LeftToeBase
				{
					OFFSET	 0.000000	 0.000000	 0.207117
					CHANNELS 3 Zrotation Xrotation Yrotation
					End Site
					{
						OFFSET	 0.000000	 0.000000	 0.207117
					}
				}
			}
		}
	}
	JOINT RightUpLeg
	{
		OFFSET	-0.124023	-0.008373	-0.065224
		CHANNELS 3 Zrotation Xrotation Yrotation
		JOINT RightLeg
		{
			OFFSET	 0.000000	 0.000000	 0.570047
			CHANNELS 3 Zrotation Xrotation Yrotation
			JOINT RightFoot
			{
				OFFSET	 0.000000	 0.000000	 0.544354
				CHANNELS 3 Zrotation Xrotation Yrotation
				JOINT RightToeBase
				{
					OFFSET	 0.000000	 0.000000	 0.207540
					CHANNELS 3 Zrotation Xrotation Yrotation
					End Site
					{
						OFFSET	 0.000000	 0.000000	 0.207540
					}
				}
			}
		}
	}
	JOINT Spine
	{
		OFFSET	 0.000184	-0.007763	 0.117403
		CHANNELS 3 Zrotation Xrotation Yrotation
		JOINT Spine1
		{
			OFFSET	 0.000000	 0.000000	 0.137269
			CHANNELS 3 Zrotation Xrotation Yrotation
			JOINT Spine2
			{
				OFFSET	 0.000000	 0.000000	 0.156879
				CHANNELS 3 Zrotation Xrotation Yrotation
				JOINT LeftShoulder
				{
					OFFSET	 0.080501	-0.002496	 0.160144
					CHANNELS 3 Zrotation Xrotation Yrotation
					JOINT LeftArm
					{
						OFFSET	 0.000000	 0.000000	 0.164363
						CHANNELS 3 Zrotation Xrotation Yrotation
						JOINT LeftForeArm
						{
							OFFSET	 0.000000	 0.000000	 0.364576
							CHANNELS 3 Zrotation Xrotation Yrotation
							JOINT LeftHand
							{
								OFFSET	 0.000000	 0.000000	 0.360812
								CHANNELS 3 Zrotation Xrotation Yrotation
								JOINT LeftHandIndex1
								{
									OFFSET	 0.000000	 0.000000	 0.086006
									CHANNELS 3 Zrotation Xrotation Yrotation
									JOINT LeftHandIndex2
									{
										OFFSET	 0.000000	 0.000000	 0.047236
										CHANNELS 3 Zrotation Xrotation Yrotation
										JOINT LeftHandIndex3
										{
											OFFSET	-0.004284	-0.000551	 0.038166
											CHANNELS 3 Zrotation Xrotation Yrotation
											End Site
											{
												OFFSET	-0.004284	-0.000551	 0.038166
											}
										}
									}
								}
							}
						}
					}
				}
				JOINT Neck
				{
					OFFSET	 0.000000	 0.000000	 0.176489
					CHANNELS 3 Zrotation Xrotation Yrotation
					JOINT Head
					{
						OFFSET	 0.000000	-0.001747	 0.077940
						CHANNELS 3 Zrotation Xrotation Yrotation
						End Site
						{
							OFFSET	 0.000000	-0.001747	 0.077940
						}
					}
				}
				JOINT RightShoulder
				{
					OFFSET	-0.080363	 0.000306	 0.159706
					CHANNELS 3 Zrotation Xrotation Yrotation
					JOINT RightArm
					{
						OFFSET	 0.000000	 0.000000	 0.164196
						CHANNELS 3 Zrotation Xrotation Yrotation
						JOINT RightForeArm
						{
							OFFSET	 0.000000	 0.000000	 0.365611
							CHANNELS 3 Zrotation Xrotation Yrotation
							JOINT RightHand
							{
								OFFSET	 0.000000	 0.000000	 0.360648
								CHANNELS 3 Zrotation Xrotation Yrotation
								JOINT RightHandIndex1
								{
									OFFSET	 0.000000	 0.000000	 0.069977
									CHANNELS 3 Zrotation Xrotation Yrotation
									JOINT RightHandIndex2
									{
										OFFSET	 0.000000	 0.000000	 0.052305
										CHANNELS 3 Zrotation Xrotation Yrotation
										JOINT RightHandIndex3
										{
											OFFSET	 0.009002	-0.000782	 0.042196
											CHANNELS 3 Zrotation Xrotation Yrotation
											End Site
											{
												OFFSET	 0.009002	-0.000782	 0.042196
											}
										}
									}
								}
							}
						}
					}
				}
			}
		}
	}
}
MOTION
Frames:    9
Frame Time: 0.03333334
 0.013873	 0.060275	 1.202766	 4.653563	-1.273893	-2.734940	-0.155270	-12.357070	-171.041800	 0.737665	-38.408530	 0.239153	 50.925010	 79.836040	-55.196640	-2.370195	 31.480820	-0.066894	-4.608360	-29.711610	-176.791200	 10.808540	-52.534310	 9.226692	 15.770270	 76.071750	-11.479580	 2.358507	 33.067590	 0.104795	-6.235352	 8.610261	 2.102258	-2.031608	 2.026671	-1.470129	 3.283250	-2.140300	 1.607345	-93.890370	 58.916030	 175.496700	 26.245790	 45.712780	-21.905700	-1.677568	-2.907141	-27.072270	-1.845791	-26.689710	-7.735908	-4.870412	 19.229470	-2.788629	-3.881449	 21.473830	 2.202677	-4.806904	 5.561472	 0.146035	-0.090886	-5.057228	 0.176489	 1.101612	 1.850356	 2.776892	 89.795180	 61.627790	-179.968800	-20.154990	 52.359620	 13.041630	-1.632614	-1.649669	 8.437407	-4.718255	-12.321300	 0.650454	 6.296322	 25.150800	-0.551588	 1.845202	 45.024380	-6.957160	 0.483879	 24.461830	 3.589810
 0.013640	 0.056950	 1.202755	 4.893301	-1.151170	-2.731256	-0.381142	-12.324370	-171.069500	 0.900635	-38.361730	 0.340052	 50.871410	 79.881030	-55.261570	-2.369791	 31.549800	-0.068451	-5.131197	-30.134400	-176.804300	 10.997750	-52.228990	 9.341424	 19.175010	 77.729090	-15.213860	 2.358746	 33.032160	 0.103969	-6.391579	 8.523980	 2.054762	-2.017968	 2.012013	-1.432032	 3.227831	-2.273384	 1.593244	-93.934470	 58.941400	 175.399700	 26.524250	 45.498760	-21.999800	-1.896646	-2.856017	-27.585070	-1.970575	-27.095770	-8.200759	-4.870223	 19.238650	-2.790123	-3.879513	 21.498480	 2.200708	-4.806464	 5.566701	 0.145725	-0.077739	-5.072918	 0.183193	 1.086010	 1.766337	 2.724262	 89.781360	 61.644970	 179.998300	-20.007340	 52.487660	 12.585000	-1.711172	-1.696663	 8.611875	-4.717076	-12.550360	 0.599383	 6.293416	 24.837910	-0.542115	 1.887673	 44.683160	-6.995052	 0.532756	 24.247730	 3.564986
 0.013062	 0.047565	 1.202658	 5.398611	-0.741786	-2.750594	-0.854662	-12.262220	-171.122300	 1.143418	-38.211040	 0.489116	 50.692730	 79.937390	-55.255740	-2.368929	 31.692720	-0.071684	-6.411451	-31.372290	-176.851900	 11.594080	-51.230030	 9.689043	 29.978220	 80.937230	-26.852440	 2.358962	 33.001000	 0.103247	-6.656941	 8.203746	 1.914962	-1.993218	 2.004641	-1.279626	 3.069285	-2.601660	 1.522500	-94.049870	 58.971240	 175.149700	 26.980120	 44.942650	-22.148460	-2.197480	-2.855658	-28.947350	-2.012201	-28.200090	-8.907784	-4.867003	 19.323800	-2.796251	-3.873338	 21.577400	 2.194432	-4.805059	 5.583165	 0.144765	-0.051484	-5.095830	 0.213370	 1.003107	 1.583390	 2.633677	 89.738540	 61.717620	 179.895800	-19.653930	 52.822390	 11.470890	-2.047433	-1.822711	 8.965727	-4.834067	-13.153770	 0.442463	 6.282973	 24.025170	-0.544979	 1.987028	 43.866510	-7.083407	 0.697367	 23.520600	 3.482481
 0.012324	 0.034647	 1.202414	 5.920479	-0.256166	-2.788426	-1.371451	-12.055660	-171.191200	 1.352097	-37.975280	 0.614981	 50.774270	 80.057600	-55.478320	-2.368039	 31.839310	-0.075016	-7.784951	-32.845790	-176.955600	 12.072190	-49.660430	 9.848057	 53.742040	 83.306110	-51.622140	 2.359056	 32.987300	 0.102929	-6.895030	 7.815117	 1.751108	-1.969960	 2.042677	-1.078205	 2.856140	-2.978620	 1.416494	-94.178730	 58.992280	 174.872200	 27.307940	 44.200050	-22.399070	-2.424987	-2.908082	-30.516750	-2.019844	-29.501010	-9.544486	-4.862463	 19.439710	-2.803857	-3.866045	 21.670350	 2.187019	-4.803428	 5.602496	 0.143629	-0.024976	-5.115145	 0.251313	 0.865769	 1.396564	 2.546647	 89.688590	 61.808200	 179.775700	-19.263270	 53.198530	 10.165880	-2.469073	-1.963482	 9.298226	-5.005755	-13.893830	 0.259014	 6.270199	 23.120540	-0.557715	 2.091264	 42.981500	-7.175634	 0.891246	 22.652140	 3.387518
 0.011917	 0.021916	 1.202112	 6.151994	 0.113949	-2.957817	-1.584875	-11.614440	-171.112800	 1.453966	-37.579460	 0.671659	 51.328400	 80.193840	-56.106810	-2.366927	 32.020260	-0.079139	-8.221860	-34.057270	-176.830600	 12.315030	-47.976000	 9.787229	 65.943990	 83.204770	-64.649010	 2.360065	 32.838470	 0.099474	-6.938136	 7.449086	 1.756727	-1.936499	 2.257679	-0.889752	 2.672155	-3.320731	 1.298071	-94.267720	 58.990610	 174.682800	 27.389540	 43.476010	-22.761040	-2.803258	-2.820530	-31.780420	-2.122098	-30.775450	-9.474014	-4.855275	 19.604540	-2.810865	-3.858129	 21.771040	 2.178979	-4.799212	 5.652180	 0.140718	-0.014781	-5.145547	 0.280829	 0.707486	 1.255679	 2.518373	 89.629140	 61.879120	 179.632100	-18.902610	 53.474790	 9.081036	-3.011885	-2.108623	 9.529553	-5.374035	-14.521540	-0.150721	 6.256019	 22.271430	-0.585290	 2.170203	 42.291100	-7.245156	 1.083327	 21.779090	 3.295860
 0.011373	 0.004715	 1.201583	 6.385064	 0.538905	-3.185135	-1.818939	-10.904880	-171.011300	 1.557093	-36.993420	 0.724768	 52.323600	 80.407420	-57.178380	-2.365522	 32.242930	-0.084225	-8.540050	-35.385200	-176.648500	 12.395740	-45.422990	 9.450950	 72.491000	 82.454370	-72.097990	 2.361388	 32.638490	 0.094857	-6.950062	 7.013790	 1.789487	-1.895810	 2.570375	-0.658635	 2.426215	-3.737248	 1.140969	-94.368220	 58.985150	 174.469400	 27.346900	 42.495080	-23.376130	-3.256713	-2.669842	-33.096330	-2.271309	-32.353050	-9.280052	-4.846197	 19.810150	-2.819237	-3.848490	 21.893120	 2.169191	-4.793736	 5.716629	 0.136938	-0.005086	-5.183762	 0.314930	 0.486672	 1.098455	 2.491350	 89.556490	 61.961240	 179.455900	-18.461690	 53.771640	 7.812784	-3.692304	-2.248974	 9.614473	-5.857118	-15.310920	-0.681201	 6.238321	 21.260950	-0.620765	 2.258984	 41.493030	-7.322986	 1.310578	 20.730040	 3.190616
 0.010668	-0.016527	 1.200761	 6.486635	 0.794175	-3.412153	-2.005641	-9.677189	-170.934700	 1.621306	-36.184900	 0.749042	 52.666000	 80.574360	-57.553050	-2.361875	 32.805200	-0.097154	-8.008139	-36.325460	-176.263400	 11.842150	-41.967600	 8.501366	 92.088140	 81.320670	-92.276990	 2.356984	 33.288540	 0.109943	-6.934827	 6.610239	 1.859599	-1.834512	 3.211387	-0.425576	 2.164735	-4.265830	 0.968355	-94.431000	 58.972630	 174.337400	 26.851900	 41.458950	-24.179800	-3.644318	-2.518317	-34.194060	-2.593993	-33.825980	-9.079901	-4.834605	 20.043090	-2.821734	-3.835305	 22.059650	 2.155792	-4.781285	 5.862912	 0.128329	 0.010611	-5.236736	 0.332417	 0.242209	 0.917707	 2.440299	 89.492260	 62.013210	 179.299700	-17.818940	 54.020910	 6.388864	-4.515654	-2.360877	 9.473996	-6.431434	-16.361230	-1.506412	 6.214890	 20.016080	-0.670232	 2.413669	 40.045820	-7.457640	 1.575065	 19.487310	 3.072615
 0.009844	-0.038628	 1.199652	 6.557228	 0.999637	-3.627314	-2.195827	-8.300776	-170.878500	 1.674234	-35.272360	 0.763218	 52.859110	 80.742480	-57.765160	-2.357804	 33.403110	-0.111043	-7.229828	-36.861160	-175.791700	 11.139150	-37.951350	 7.382474	 105.612900	 79.469700	-106.112800	 2.351392	 34.068810	 0.128283	-6.902862	 6.241354	 1.932051	-1.770254	 3.875778	-0.204843	 1.881703	-4.779443	 0.790108	-94.482730	 58.959440	 174.229400	 26.234280	 40.424650	-25.143650	-3.973576	-2.352640	-34.874090	-2.940065	-35.245070	-8.897247	-4.823218	 20.267600	-2.823167	-3.822127	 22.225280	 2.142406	-4.768141	 6.017004	 0.119220	 0.026629	-5.289528	 0.345641	-0.022008	 0.749130	 2.384157	 89.433590	 62.056150	 179.156600	-17.157960	 54.196590	 5.118670	-5.339014	-2.381775	 9.007944	-7.012581	-17.445260	-2.349475	 6.190917	 18.797620	-0.719481	 2.565170	 38.554580	-7.588264	 1.827773	 18.278510	 2.964510
 0.008826	-0.060038	 1.198296	 6.701824	 1.016440	-3.767397	-2.485590	-6.779686	-170.899100	 1.781729	-34.364620	 0.806731	 50.740040	 80.645580	-55.683780	-2.348741	 34.638320	-0.140207	-6.971528	-36.902120	-175.511200	 11.008420	-33.820450	 6.613180	 96.317700	 79.049270	-97.335820	 2.343642	 35.075230	 0.152330	-7.008527	 6.217549	 1.968660	-1.699960	 4.249093	-0.005670	 1.602755	-5.268127	 0.614584	-94.513910	 58.929970	 174.168000	 25.379380	 39.715270	-25.897720	-3.996473	-2.363958	-35.186860	-3.489463	-36.950060	-9.308728	-4.833024	 20.380000	-2.912476	-3.807260	 22.411310	 2.127313	-4.748627	 6.245270	 0.105663	 0.063775	-5.339870	 0.350435	-0.252332	 0.635000	 2.221195	 89.396790	 62.017350	 179.068900	-16.448990	 54.268810	 3.742358	-5.995184	-2.370940	 8.572489	-7.357929	-18.808660	-3.079027	 6.177181	 17.635040	-0.709596	 2.710873	 37.047340	-7.712592	 2.065376	 17.123320	 2.867119
